<?xml version="1.0" standalone="no"?>
<!DOCTYPE svg PUBLIC "-//W3C//DTD SVG 20010904//EN"
 "http://www.w3.org/TR/2001/REC-SVG-20010904/DTD/svg10.dtd">
<svg version="1.0" xmlns="http://www.w3.org/2000/svg"
 width="700.000000pt" height="700.000000pt" viewBox="0 0 700.000000 700.000000"
 preserveAspectRatio="xMidYMid meet">
<metadata>
Created by potrace 1.11, written by Peter Selinger 2001-2013
</metadata>
<g transform="translate(0.000000,700.000000) scale(0.100000,-0.100000)"
fill="#000000" stroke="none">
<path d="M510 6118 c-219 -26 -411 -185 -481 -400 l-24 -73 0 -2145 0 -2145
22 -70 c62 -196 242 -358 443 -398 52 -10 663 -12 3050 -11 3331 2 3030 -5
3172 71 158 86 268 241 296 418 4 22 7 994 7 2160 l0 2120 -24 73 c-66 202
-242 357 -451 398 -45 9 -5937 11 -6010 2z m1987 -882 c89 -15 233 -75 322
-134 194 -129 348 -368 377 -585 9 -68 10 -221 2 -274 -44 -269 -205 -501
-438 -631 -249 -139 -565 -145 -819 -17 -70 35 -174 109 -223 157 -39 40 -120
141 -126 158 -3 8 -10 22 -17 30 -19 25 -74 157 -86 207 -21 93 -24 119 -23
243 1 148 18 227 73 345 125 267 340 437 631 498 63 14 255 15 327 3z m3340
-281 c157 -156 283 -289 281 -294 -1 -4 -100 -136 -218 -293 l-215 -284 -225
1 c-124 0 -232 -1 -242 -3 -9 -2 -18 -14 -21 -25 -3 -12 -17 -62 -31 -111 -14
-49 -28 -107 -31 -130 -10 -70 -15 -100 -21 -130 -7 -33 -7 -315 0 -361 2 -16
7 -52 11 -80 12 -82 69 -312 80 -323 3 -3 112 -6 243 -6 l237 0 95 -126 c52
-69 132 -175 177 -236 45 -60 86 -113 90 -119 44 -54 73 -94 73 -100 0 -9
-565 -575 -575 -575 -16 0 -153 117 -247 213 -185 185 -352 434 -447 662 -18
44 -36 87 -41 95 -8 18 -63 194 -80 258 -16 62 -40 198 -46 257 -2 28 -7 61
-9 75 -6 31 -6 322 0 370 11 86 15 116 30 202 9 51 18 95 20 98 2 4 6 17 9 31
36 175 152 451 264 628 39 62 153 220 192 265 92 108 328 325 354 326 5 0 137
-128 293 -285z m-3317 -2019 c42 -3 85 -8 95 -10 11 -2 43 -7 70 -10 78 -11
241 -44 345 -72 616 -163 1007 -439 1046 -739 4 -33 8 -126 8 -208 l1 -147
-1751 0 -1751 0 2 173 c1 94 5 190 10 212 45 222 296 438 695 597 183 73 519
162 689 183 30 4 63 8 74 11 11 2 52 6 91 10 39 3 72 7 73 8 5 4 238 -2 303
-8z"/>
</g>
</svg>
